<svg xmlns="http://www.w3.org/2000/svg" viewBox="0 0 512 512">
  <!-- Parrot head icon - CC0 from SVG Repo, recolored -->

  <!-- Head outline filled yellow -->
  <path d="M455.611,187.151c-8.994-46.164-22.363-82.382-40.869-110.723C380.693,24.286,330.252,0,256,0
    S131.306,24.286,97.256,76.428c-18.507,28.341-31.875,64.559-40.869,110.723c-9.137,46.9-13.579,103.026-13.579,171.583v7.406
    l5.732,4.689c2.142,1.752,54.122,43.967,199.093,135.868L256,512l8.366-5.303c144.972-91.9,196.951-134.116,199.094-135.867
    l5.732-4.689v-7.406C469.191,290.178,464.749,234.052,455.611,187.151z" fill="#FFCC00"/>

  <!-- Inner face cutout -->
  <path d="M256,474.988
    C144.886,404.262,90.707,363.956,74.079,351.148c0.631-123.456,16.79-207.783,49.344-257.633
    C151.542,50.455,192.43,31.252,256,31.252c63.569,0,104.457,19.203,132.577,62.263c32.553,49.85,48.712,134.177,49.343,257.633
    C421.284,363.961,367.106,404.268,256,474.988z" fill="#FFD633"/>

  <!-- Beak -->
  <path d="M298.823,178.621c-17.436-19.217-35.202-28.043-35.95-28.41L256,146.845l-6.874,3.367
    c-0.748,0.367-18.513,9.192-35.95,28.41c-23.097,25.456-35.305,57.54-35.305,92.784c0,82.302,64.61,144.686,67.362,147.301
    L256,428.945l10.767-10.239c2.751-2.616,67.362-64.999,67.362-147.301C334.128,236.162,321.919,204.077,298.823,178.621z" fill="#E6A800"/>

  <!-- Beak inner -->
  <path d="M256,384.215c-16.693-19.923-46.877-62.858-46.877-112.809c0-51.755,32.328-79.248,46.873-88.998
    c14.59,9.782,46.881,37.275,46.881,88.998C302.877,321.356,272.693,364.292,256,384.215z" fill="#FFD633"/>

  <!-- Left eye -->
  <circle cx="172.578" cy="139.974" r="20.507" fill="#1a1a2e"/>

  <!-- Right eye -->
  <circle cx="339.267" cy="139.973" r="20.675" fill="#1a1a2e"/>
</svg>
