<svg xmlns="http://www.w3.org/2000/svg" viewBox="0 0 512 512">
  <!-- Parrot head: solid fill with transparent cutouts for eyes and beak -->
  <path fill-rule="evenodd" d="
    M455.611,187.151c-8.994-46.164-22.363-82.382-40.869-110.723C380.693,24.286,330.252,0,256,0
    S131.306,24.286,97.256,76.428c-18.507,28.341-31.875,64.559-40.869,110.723c-9.137,46.9-13.579,103.026-13.579,171.583v7.406
    l5.732,4.689c2.142,1.752,54.122,43.967,199.093,135.868L256,512l8.366-5.303c144.972-91.9,196.951-134.116,199.094-135.867
    l5.732-4.689v-7.406C469.191,290.178,464.749,234.052,455.611,187.151z

    M298.823,178.621c-17.436-19.217-35.202-28.043-35.95-28.41L256,146.845l-6.874,3.367
    c-0.748,0.367-18.513,9.192-35.95,28.41c-23.097,25.456-35.305,57.54-35.305,92.784c0,82.302,64.61,144.686,67.362,147.301
    L256,428.945l10.767-10.239c2.751-2.616,67.362-64.999,67.362-147.301C334.128,236.162,321.919,204.077,298.823,178.621z

    M172.578,98.695c-11.306,0-20.507,9.295-20.507,20.772c0,11.476,9.2,20.779,20.507,20.779
    c11.321,0,20.52-9.304,20.52-20.779C193.097,107.99,183.899,98.695,172.578,98.695z

    M339.267,98.532c-11.415,0-20.675,9.372-20.675,20.934s9.26,20.934,20.675,20.934c11.402,0,20.661-9.372,20.661-20.934
    S350.668,98.532,339.267,98.532z
  " fill="#000000"/>
</svg>
